<svg width="78" height="38" viewBox="0 0 78 38" fill="none" xmlns="http://www.w3.org/2000/svg">
<g filter="url(#filter0_i_115_1583)">
<rect width="78" height="38" rx="19" fill="url(#paint0_linear_115_1583)"/>
</g>
<path d="M44.3204 10.9296C44.5103 10.635 44.9316 10.7154 45.017 11.0626L45.3189 12.2897C45.3537 12.4309 45.4533 12.5426 45.5824 12.585L46.7047 12.9544C47.0222 13.0588 47.0818 13.5176 46.8032 13.7128L45.8185 14.4028C45.7052 14.4822 45.6379 14.6193 45.6405 14.7653L45.6628 16.035C45.6692 16.3942 45.2846 16.5973 45.027 16.3708L44.1165 15.5701C44.0118 15.4781 43.8706 15.4511 43.7431 15.4989L42.6346 15.9143C42.321 16.0318 42.0238 15.6986 42.1431 15.3634L42.5652 14.1785C42.6137 14.0422 42.5937 13.8884 42.5124 13.7719L41.8049 12.759C41.6048 12.4724 41.8056 12.0634 42.137 12.0827L43.3083 12.1511C43.443 12.1589 43.5719 12.0909 43.6491 11.9711L44.3204 10.9296Z" fill="url(#paint1_linear_115_1583)"/>
<path d="M35.4706 5.23108C35.5168 5.15927 35.6195 5.17887 35.6404 5.26348L35.7139 5.56257C35.7224 5.59697 35.7467 5.62419 35.7781 5.63454L36.0517 5.72456C36.1291 5.75002 36.1436 5.86182 36.0757 5.9094L35.8357 6.07759C35.8081 6.09693 35.7917 6.13035 35.7923 6.16594L35.7978 6.4754C35.7993 6.56295 35.7056 6.61245 35.6428 6.55724L35.4209 6.3621C35.3954 6.33965 35.3609 6.33308 35.3299 6.34473L35.0597 6.44597C34.9833 6.47461 34.9108 6.3934 34.9399 6.3117L35.0428 6.02291C35.0546 5.9897 35.0497 5.95222 35.0299 5.92382L34.8575 5.67694C34.8087 5.60709 34.8576 5.5074 34.9384 5.51212L35.2239 5.52878C35.2567 5.53069 35.2881 5.5141 35.307 5.48491L35.4706 5.23108Z" fill="url(#paint2_linear_115_1583)"/>
<path d="M55.555 13.9967C55.6029 13.7853 55.8574 13.731 55.9757 13.9071L56.3941 14.5294C56.4423 14.6009 56.5211 14.6405 56.6027 14.634L57.3117 14.5772C57.5123 14.5611 57.6386 14.8064 57.5205 14.9826L57.1031 15.6057C57.0551 15.6774 57.0447 15.7708 57.0757 15.8528L57.3446 16.5653C57.4207 16.7668 57.2443 16.9726 57.053 16.9055L56.3766 16.6683C56.2988 16.641 56.2135 16.6592 56.1511 16.7164L55.6083 17.2135C55.4548 17.3542 55.2195 17.2361 55.2193 17.0184L55.2187 16.2487C55.2186 16.1601 55.1763 16.0779 55.1067 16.0313L54.5023 15.6261C54.3313 15.5114 54.3623 15.2327 54.5535 15.1652L55.2295 14.9267C55.3072 14.8993 55.3664 14.8303 55.3858 14.7443L55.555 13.9967Z" fill="url(#paint3_linear_115_1583)"/>
<path d="M63.5738 9.03703C63.6007 8.91858 63.7432 8.8882 63.8095 8.9868L64.0438 9.33533C64.0708 9.37542 64.1149 9.39758 64.1606 9.39392L64.5577 9.36213C64.67 9.35313 64.7408 9.49048 64.6746 9.5892L64.4409 9.93818C64.414 9.97832 64.4082 10.0307 64.4255 10.0765L64.5761 10.4756C64.6188 10.5885 64.52 10.7038 64.4128 10.6662L64.034 10.5333C63.9904 10.518 63.9427 10.5282 63.9077 10.5602L63.6037 10.8387C63.5177 10.9174 63.3859 10.8513 63.3858 10.7294L63.3854 10.2983C63.3854 10.2487 63.3617 10.2027 63.3228 10.1766L62.9842 9.94958C62.8885 9.88537 62.9058 9.72925 63.0129 9.69146L63.3915 9.55788C63.4351 9.54252 63.4682 9.50388 63.4791 9.45573L63.5738 9.03703Z" fill="url(#paint4_linear_115_1583)"/>
<path d="M51.6431 4.16399C51.7727 4.10391 51.908 4.2353 51.8668 4.38122L51.7212 4.89702C51.7045 4.95634 51.7172 5.02082 51.755 5.06751L52.0831 5.47337C52.1759 5.58819 52.1023 5.76806 51.9613 5.77075L51.4632 5.78027C51.4059 5.78137 51.3533 5.81444 51.3239 5.86772L51.0687 6.33094C50.9966 6.46199 50.8158 6.44177 50.7699 6.29751L50.6076 5.78759C50.5889 5.72894 50.5436 5.6849 50.4877 5.67115L50.0019 5.55157C49.8645 5.51774 49.8264 5.32537 49.939 5.23353L50.3368 4.90886C50.3825 4.87152 50.4072 4.81123 50.402 4.74945L50.3569 4.21232C50.3442 4.06037 50.5014 3.9617 50.6169 4.04919L51.025 4.35846C51.072 4.39403 51.1326 4.40081 51.1852 4.37638L51.6431 4.16399Z" fill="url(#paint5_linear_115_1583)"/>
<defs>
<filter id="filter0_i_115_1583" x="0" y="0" width="78" height="44" filterUnits="userSpaceOnUse" color-interpolation-filters="sRGB">
<feFlood flood-opacity="0" result="BackgroundImageFix"/>
<feBlend mode="normal" in="SourceGraphic" in2="BackgroundImageFix" result="shape"/>
<feColorMatrix in="SourceAlpha" type="matrix" values="0 0 0 0 0 0 0 0 0 0 0 0 0 0 0 0 0 0 127 0" result="hardAlpha"/>
<feMorphology radius="3" operator="erode" in="SourceAlpha" result="effect1_innerShadow_115_1583"/>
<feOffset dy="6"/>
<feGaussianBlur stdDeviation="4"/>
<feComposite in2="hardAlpha" operator="arithmetic" k2="-1" k3="1"/>
<feColorMatrix type="matrix" values="0 0 0 0 0 0 0 0 0 0 0 0 0 0 0 0 0 0 0.25 0"/>
<feBlend mode="normal" in2="shape" result="effect1_innerShadow_115_1583"/>
</filter>
<linearGradient id="paint0_linear_115_1583" x1="39.975" y1="1.47778" x2="38.8324" y2="37.9948" gradientUnits="userSpaceOnUse">
<stop stop-color="#2B4485"/>
<stop offset="1" stop-color="#AFCAFF"/>
</linearGradient>
<linearGradient id="paint1_linear_115_1583" x1="44.8009" y1="10.1841" x2="43.459" y2="17.2164" gradientUnits="userSpaceOnUse">
<stop stop-color="#ADDDFF"/>
<stop offset="1" stop-color="#EDF6FF" stop-opacity="0"/>
</linearGradient>
<linearGradient id="paint2_linear_115_1583" x1="35.5877" y1="5.04936" x2="35.2606" y2="6.76334" gradientUnits="userSpaceOnUse">
<stop stop-color="#ADDDFF"/>
<stop offset="1" stop-color="#EDF6FF" stop-opacity="0"/>
</linearGradient>
<linearGradient id="paint3_linear_115_1583" x1="55.6762" y1="13.4615" x2="56.5804" y2="17.7027" gradientUnits="userSpaceOnUse">
<stop stop-color="#ADDDFF"/>
<stop offset="1" stop-color="#EDF6FF" stop-opacity="0"/>
</linearGradient>
<linearGradient id="paint4_linear_115_1583" x1="63.6417" y1="8.73728" x2="64.1481" y2="11.1127" gradientUnits="userSpaceOnUse">
<stop stop-color="#ADDDFF"/>
<stop offset="1" stop-color="#EDF6FF" stop-opacity="0"/>
</linearGradient>
<linearGradient id="paint5_linear_115_1583" x1="51.971" y1="4.01195" x2="49.9241" y2="6.11923" gradientUnits="userSpaceOnUse">
<stop stop-color="#ADDDFF"/>
<stop offset="1" stop-color="#EDF6FF" stop-opacity="0"/>
</linearGradient>
</defs>
</svg>
